<svg width="50" height="51" viewBox="0 0 50 51" fill="none" xmlns="http://www.w3.org/2000/svg">
<g id="solar:health-bold">
<path id="Vector" fill-rule="evenodd" clip-rule="evenodd" d="M18.7138 38.6927C12.7052 33.9948 4.49976 26.2343 4.49976 18.8968C4.49976 6.63851 15.7289 2.06143 24.9164 11.5281C34.1039 2.06143 45.3331 6.63851 45.3331 18.8948C45.3331 26.2343 37.1256 33.9948 31.119 38.6927C28.3995 40.8177 27.0398 41.8823 24.9164 41.8823C22.7931 41.8823 21.4333 40.8198 18.7138 38.6927ZM34.1039 13.2364C34.51 13.2364 34.8995 13.401 35.1867 13.6941C35.4738 13.9871 35.6352 14.3845 35.6352 14.7989V17.4031H38.1873C38.5934 17.4031 38.9828 17.5677 39.27 17.8607C39.5572 18.1538 39.7185 18.5512 39.7185 18.9656C39.7185 19.38 39.5572 19.7774 39.27 20.0704C38.9828 20.3635 38.5934 20.5281 38.1873 20.5281H35.6352V23.1323C35.6352 23.5467 35.4738 23.9441 35.1867 24.2371C34.8995 24.5301 34.51 24.6948 34.1039 24.6948C33.6978 24.6948 33.3083 24.5301 33.0212 24.2371C32.734 23.9441 32.5727 23.5467 32.5727 23.1323V20.5281H30.0206C29.6145 20.5281 29.225 20.3635 28.9378 20.0704C28.6507 19.7774 28.4893 19.38 28.4893 18.9656C28.4893 18.5512 28.6507 18.1538 28.9378 17.8607C29.225 17.5677 29.6145 17.4031 30.0206 17.4031H32.5727V14.7989C32.5727 14.3845 32.734 13.9871 33.0212 13.6941C33.3083 13.401 33.6978 13.2364 34.1039 13.2364Z" fill="#5974E9"/>
</g>
</svg>
