<svg width="51" height="51" viewBox="0 0 51 51" fill="none" xmlns="http://www.w3.org/2000/svg">
<g id="maki:doctor">
<path id="Vector" d="M19.1171 24.0482C16.907 24.0483 14.7874 23.1703 13.2245 21.6075C11.6617 20.0447 10.7838 17.9251 10.7838 15.7149V9.04825C10.7838 8.60622 10.9594 8.1823 11.2719 7.86974C11.5845 7.55718 12.0084 7.38158 12.4504 7.38158H14.1171C14.5591 7.38158 14.9831 7.20599 15.2956 6.89343C15.6082 6.58087 15.7838 6.15694 15.7838 5.71492C15.7838 5.27289 15.6082 4.84896 15.2956 4.5364C14.9831 4.22384 14.5591 4.04825 14.1171 4.04825H12.4504C11.1244 4.04825 9.85259 4.57503 8.91491 5.51271C7.97722 6.4504 7.45044 7.72217 7.45044 9.04825V15.7149C7.45258 17.5978 7.91173 19.452 8.78844 21.1184C9.66515 22.7847 10.9332 24.2134 12.4838 25.2816C13.9735 26.595 15.1816 28.1966 16.0352 29.9898C16.8889 31.783 17.3703 33.7305 17.4504 35.7149C17.4504 38.8091 18.6796 41.7766 20.8675 43.9645C23.0555 46.1524 26.0229 47.3816 29.1171 47.3816C32.2113 47.3816 35.1788 46.1524 37.3667 43.9645C39.5546 41.7766 40.7838 38.8091 40.7838 35.7149V33.8149C42.3549 33.4093 43.7241 32.4445 44.6348 31.1016C45.5455 29.7586 45.9351 28.1296 45.7306 26.5199C45.5262 24.9102 44.7417 23.4304 43.5242 22.3577C42.3066 21.2851 40.7397 20.6933 39.1171 20.6933C37.4945 20.6933 35.9276 21.2851 34.7101 22.3577C33.4925 23.4304 32.708 24.9102 32.5036 26.5199C32.2991 28.1296 32.6887 29.7586 33.5994 31.1016C34.5101 32.4445 35.8793 33.4093 37.4504 33.8149V35.7149C37.4504 37.9251 36.5725 40.0447 35.0097 41.6075C33.4469 43.1703 31.3272 44.0482 29.1171 44.0482C26.907 44.0482 24.7874 43.1703 23.2245 41.6075C21.6617 40.0447 20.7838 37.9251 20.7838 35.7149C20.8681 33.7281 21.3548 31.779 22.2142 29.9857C23.0736 28.1923 24.288 26.592 25.7838 25.2816C27.3282 24.2096 28.5897 22.7794 29.4605 21.1133C30.3313 19.4472 30.7854 17.5949 30.7838 15.7149V9.04825C30.7838 7.72217 30.257 6.4504 29.3193 5.51271C28.3816 4.57503 27.1099 4.04825 25.7838 4.04825H24.1171C23.6751 4.04825 23.2512 4.22384 22.9386 4.5364C22.626 4.84896 22.4504 5.27289 22.4504 5.71492C22.4504 6.15694 22.626 6.58087 22.9386 6.89343C23.2512 7.20599 23.6751 7.38158 24.1171 7.38158H25.7838C26.2258 7.38158 26.6497 7.55718 26.9623 7.86974C27.2748 8.1823 27.4504 8.60622 27.4504 9.04825V15.7149C27.4504 16.8093 27.2349 17.8929 26.8161 18.9039C26.3973 19.915 25.7835 20.8337 25.0097 21.6075C24.2358 22.3813 23.3172 22.9951 22.3061 23.4139C21.2951 23.8327 20.2115 24.0482 19.1171 24.0482ZM39.1171 30.7149C38.2331 30.7149 37.3852 30.3637 36.7601 29.7386C36.135 29.1135 35.7838 28.2656 35.7838 27.3816C35.7838 26.4975 36.135 25.6497 36.7601 25.0246C37.3852 24.3994 38.2331 24.0482 39.1171 24.0482C40.0012 24.0482 40.849 24.3994 41.4741 25.0246C42.0992 25.6497 42.4504 26.4975 42.4504 27.3816C42.4504 28.2656 42.0992 29.1135 41.4741 29.7386C40.849 30.3637 40.0012 30.7149 39.1171 30.7149Z" fill="#5974E9"/>
</g>
</svg>
